<?xml version="1.0" encoding="UTF-8"?>
<svg version="1.1" xmlns="http://www.w3.org/2000/svg" width="512" height="512">
<path d="M0 0 C5.61033159 4.38282566 10.78844841 9.24421282 15 15 C15 15.66 15 16.32 15 17 C17.60276021 14.47160437 19.93206777 12.08991031 22.125 9.1875 C31.25978198 -1.88842315 46.06452725 -8.15705854 60 -10 C79.48738471 -11.51724643 97.08021147 -8.84524848 113.00390625 3.2890625 C127.13134948 15.39829955 133.17615837 30.84324829 135 49 C136.7634375 49.0928125 136.7634375 49.0928125 138.5625 49.1875 C154.61679867 51.00782993 168.68638547 58.74645776 180 70 C180.55300781 70.51820312 181.10601562 71.03640625 181.67578125 71.5703125 C193.07922864 83.3118675 197.50410933 100.90425155 197.35424805 116.7578125 C197.01998389 127.18968887 194.07949822 135.92516523 189 145 C189.763125 145.20625 190.52625 145.4125 191.3125 145.625 C201.09043942 149.27101131 208.64267002 154.65564591 216 162 C216.57621094 162.56460938 217.15242188 163.12921875 217.74609375 163.7109375 C228.40574015 175.06276873 231.52724369 190.57813524 231.34936523 205.67578125 C230.81286353 221.73809661 225.57789145 236.16319383 214.34765625 247.875 C211.37866048 250.56241048 208.2677293 252.76878504 204.84765625 254.84375 C202.85726302 255.99320088 202.85726302 255.99320088 201 258 C201.63385078 261.10667243 201.63385078 261.10667243 202.8125 264.6875 C207.05544355 279.41594009 207.34982234 293.91572126 200.3125 307.875 C193.25827086 319.63779773 181.99752458 326.98258331 169 331 C168.01 331 167.02 331 166 331 C166.33 331.66 166.66 332.32 167 333 C168.34595289 346.97720306 164.59664598 361.31305879 156.1015625 372.5 C148.71432594 380.6287064 138.58596259 385.42200676 128 388 C126.68 388 125.36 388 124 388 C124.03480469 388.88300781 124.06960938 389.76601563 124.10546875 390.67578125 C124.47648772 407.12428898 119.6856706 420.81402087 108.30615234 432.83813477 C96.50438054 444.76866037 81.23508378 452.09213993 64.40136719 452.38012695 C54.86229942 452.36168124 46.85885687 451.87495322 38 448 C37.19691406 447.649375 36.39382813 447.29875 35.56640625 446.9375 C28.42620323 443.37358584 20.1310671 437.54535842 17 430 C16.34 430 15.68 430 15 430 C14.73445312 430.58265625 14.46890625 431.1653125 14.1953125 431.765625 C10.3806432 438.89631402 4.02220516 442.85495918 -3 446.375 C-3.99604248 446.87531738 -3.99604248 446.87531738 -5.01220703 447.38574219 C-17.7827507 453.49025655 -34.92554373 454.67806927 -48.3984375 450.1015625 C-66.10557701 442.60394487 -81.39559378 431.95850685 -89.00390625 413.57421875 C-91.8689023 405.33908516 -92.1261931 397.66525957 -92 389 C-93.55847656 388.56300781 -93.55847656 388.56300781 -95.1484375 388.1171875 C-108.31222819 384.30303921 -120.32721803 379.35378716 -127.7578125 367.1015625 C-133.12286925 356.81205753 -136.8141599 344.26253996 -134.51953125 332.546875 C-134.34808594 332.03640625 -134.17664063 331.5259375 -134 331 C-134.85078125 330.896875 -135.7015625 330.79375 -136.578125 330.6875 C-148.0640793 328.37981968 -158.9294438 320.83610018 -165.83984375 311.51953125 C-171.20280876 303.06204364 -173.54991771 294.98550316 -173.4375 285 C-173.43427734 284.09805908 -173.43105469 283.19611816 -173.42773438 282.2668457 C-173.24899916 273.49880494 -171.46080036 265.38210123 -169 257 C-170.03447266 256.41605469 -170.03447266 256.41605469 -171.08984375 255.8203125 C-184.47606242 247.85101359 -192.52087331 237.17739228 -196.8125 222.1875 C-201.38106446 203.32201619 -199.21717515 184.42583943 -189.16210938 167.75537109 C-181.55057127 156.25811081 -169.15061635 149.71948752 -157 144 C-157.32613281 143.42894531 -157.65226562 142.85789063 -157.98828125 142.26953125 C-166.3583518 126.73922336 -166.75769811 110.767049 -162 94 C-156.65391584 77.5972418 -145.97652718 65.28067244 -131 57 C-122.07952497 52.63415905 -112.07255184 48.65267063 -102 49 C-102.103125 47.845 -102.20625 46.69 -102.3125 45.5 C-102.27528953 33.70427952 -96.95763569 22.24653109 -90 13 C-89.50113281 12.29617187 -89.00226563 11.59234375 -88.48828125 10.8671875 C-68.6597824 -14.60519137 -25.77797132 -16.56371774 0 0 Z " fill="#000101" transform="translate(240,35)"/>
<path d="M0 0 C7.20184668 7.10985228 12.13286973 16.84768406 12.50138855 27.02992249 C12.50996073 28.82210517 12.50239374 30.61441626 12.48120117 32.40649414 C12.48163925 33.39291901 12.48207733 34.37934387 12.48252869 35.3956604 C12.48045418 38.62596069 12.4571864 41.85572892 12.43359375 45.0859375 C12.42799304 47.33751644 12.42372519 49.58909906 12.42073059 51.84068298 C12.40931928 57.74423454 12.37988407 63.64756192 12.34661865 69.55102539 C12.31583758 75.5841163 12.30220811 81.6172437 12.28710938 87.65039062 C12.25501081 99.47145223 12.20385951 111.29234804 12.140625 123.11328125 C11.66209579 122.70227173 11.18356659 122.29126221 10.6905365 121.86779785 C10.06168045 121.32812378 9.4328244 120.78844971 8.78491211 120.23242188 C8.1620079 119.69766235 7.5391037 119.16290283 6.89732361 118.61193848 C-3.57587565 109.677147 -15.83379294 104.04877531 -29.625 102.828125 C-32.55673007 103.20227936 -33.8325673 103.96670764 -35.859375 106.11328125 C-36.34199167 108.62208741 -36.34199167 108.62208741 -36.109375 111.30078125 C-36.07328125 112.20183594 -36.0371875 113.10289062 -36 114.03125 C-35.95359375 114.71832031 -35.9071875 115.40539062 -35.859375 116.11328125 C-34.74820313 116.34402344 -33.63703125 116.57476562 -32.4921875 116.8125 C-18.76750172 119.77115188 -6.80325053 123.66404305 1.89453125 135.5 C10.80456179 149.72478559 12.45054171 163.66051238 12.36767578 180.14135742 C12.36711054 181.72916659 12.36743044 183.31697629 12.36856079 184.90478516 C12.36913088 189.18296963 12.35743268 193.46104026 12.34341288 197.73919845 C12.33084779 202.22214784 12.32973048 206.70510029 12.32736206 211.18806458 C12.32116419 219.66276418 12.30477644 228.13741174 12.28466308 236.6120885 C12.26225119 246.26632429 12.25129738 255.92056266 12.24127221 265.57481802 C12.22040859 285.4210014 12.18526577 305.26713803 12.140625 325.11328125 C10.85012438 324.16072214 9.5617029 323.20534583 8.27416992 322.2487793 C7.5564592 321.71705612 6.83874847 321.18533295 6.09928894 320.63749695 C-0.94615345 315.15479332 -4.58742013 307.20125957 -7.859375 299.11328125 C-8.20226562 298.32050781 -8.54515625 297.52773438 -8.8984375 296.7109375 C-12.98669467 285.65934801 -13.27115125 273.74257046 -13.39282227 262.1003418 C-13.41272217 261.1081665 -13.43262207 260.11599121 -13.453125 259.09375 C-13.46021484 258.20582764 -13.46730469 257.31790527 -13.47460938 256.40307617 C-13.93525754 253.66169344 -14.67395384 252.77842773 -16.859375 251.11328125 C-18.80142467 250.60524305 -18.80142467 250.60524305 -20.859375 250.67578125 C-21.54 250.65644531 -22.220625 250.63710938 -22.921875 250.6171875 C-25.71030905 251.33116154 -26.36368371 252.70495597 -27.859375 255.11328125 C-28.33172639 257.38599557 -28.33172639 257.38599557 -28.29296875 259.83203125 C-28.30416748 260.75483887 -28.31536621 261.67764648 -28.3269043 262.62841797 C-28.31699463 263.61342285 -28.30708496 264.59842773 -28.296875 265.61328125 C-28.28877808 267.13912842 -28.28877808 267.13912842 -28.28051758 268.69580078 C-28.03364107 281.26210781 -25.69454352 293.35784925 -21.4387207 305.17236328 C-20.859375 307.11328125 -20.859375 307.11328125 -20.859375 310.11328125 C-21.53403809 310.13310059 -22.20870117 310.15291992 -22.90380859 310.17333984 C-26.01433361 310.26966235 -29.12428289 310.37889935 -32.234375 310.48828125 C-33.82572266 310.5346875 -33.82572266 310.5346875 -35.44921875 310.58203125 C-45.33972215 310.77752717 -45.33972215 310.77752717 -54.859375 313.11328125 C-56.89990964 315.35450552 -57.77196572 316.61379966 -58.296875 319.61328125 C-57.69902564 323.02956328 -56.60470208 324.01610279 -53.859375 326.11328125 C-50.40797027 326.58438864 -50.40797027 326.58438864 -46.5234375 326.328125 C-45.05078695 326.29208415 -43.57813046 326.25628514 -42.10546875 326.22070312 C-39.81060812 326.14074028 -37.51639953 326.05212569 -35.22216797 325.95581055 C-21.64611173 325.4309249 -9.56706051 326.91804828 1.2421875 336.16015625 C8.1960037 343.31428814 12.51249657 351.61228715 12.5390625 361.62890625 C12.54336777 362.67362091 12.54336777 362.67362091 12.54776001 363.73944092 C12.54978891 365.20504576 12.54434171 366.67067841 12.53173828 368.13623047 C12.51576405 370.34406316 12.53157465 372.55003827 12.55078125 374.7578125 C12.56973272 386.83193798 11.27227121 397.65100202 3.140625 407.11328125 C-2.32216102 412.48022892 -8.65544617 414.8438691 -15.859375 417.11328125 C-16.849375 417.44328125 -17.839375 417.77328125 -18.859375 418.11328125 C-34.42542245 419.37763397 -45.93275489 414.89029876 -58.078125 405.375 C-65.09345638 399.07469278 -70.65162233 390.30707045 -71.328125 380.7578125 C-71.453112 375.75833249 -71.4526011 370.89295956 -69.859375 366.11328125 C-69.44270833 362.61328125 -69.44270833 362.61328125 -69.859375 359.11328125 C-73.30972201 355.2270033 -78.06724733 355.35742887 -82.921875 354.80078125 C-92.47830306 353.48614993 -100.33250353 351.02126722 -107.296875 343.98828125 C-114.48687836 334.40161011 -114.93780398 322.59314318 -113.859375 311.11328125 C-112.79072218 304.18911751 -110.43279539 298.52427504 -104.859375 294.11328125 C-96.94219388 289.05595838 -89.39984591 286.30220896 -80.10205078 285.17480469 C-76.98658009 284.75648401 -75.21084806 284.45694379 -72.92578125 282.22265625 C-71.46283868 279.32892369 -71.45126852 277.31011534 -71.859375 274.11328125 C-72.929163 272.33338131 -72.929163 272.33338131 -74.859375 271.11328125 C-88.38166161 269.09040549 -101.68015314 273.64802458 -112.859375 281.11328125 C-113.94025391 282.19609375 -113.94025391 282.19609375 -115.04296875 283.30078125 C-116.859375 285.11328125 -116.859375 285.11328125 -118.859375 285.11328125 C-119.13523438 285.685625 -119.41109375 286.25796875 -119.6953125 286.84765625 C-120.85405348 289.10292392 -122.12813206 291.22184503 -123.484375 293.36328125 C-124.15339844 294.42289062 -124.15339844 294.42289062 -124.8359375 295.50390625 C-125.17367187 296.035 -125.51140625 296.56609375 -125.859375 297.11328125 C-133.84686893 296.49885864 -141.35379864 291.74398434 -146.859375 286.11328125 C-152.84385488 276.00940329 -154.45236799 266.16927439 -152.17578125 254.65625 C-149.9487918 247.01425717 -146.57044708 240.12686702 -142.859375 233.11328125 C-138.767836 225.23142085 -134.7828916 217.31164792 -131.359375 209.11328125 C-130.8746875 207.95828125 -130.39 206.80328125 -129.890625 205.61328125 C-128.66551165 201.45532078 -128.56252197 198.42906756 -128.859375 194.11328125 C-130.2822014 191.85864876 -130.2822014 191.85864876 -132.859375 191.11328125 C-136.44270833 191.02994792 -136.44270833 191.02994792 -139.859375 192.11328125 C-142.193553 194.71419184 -143.51701088 197.35438894 -144.76171875 200.59765625 C-145.26155273 201.87769531 -145.26155273 201.87769531 -145.77148438 203.18359375 C-146.10986328 204.06789063 -146.44824219 204.9521875 -146.796875 205.86328125 C-149.20754299 212.12451526 -151.76348041 218.15697398 -154.859375 224.11328125 C-161.67611304 223.14288445 -166.54416738 219.14855345 -170.66796875 213.7421875 C-176.26115135 204.80146419 -178.36549833 196.67293206 -178.234375 186.17578125 C-178.25177734 184.78842773 -178.25177734 184.78842773 -178.26953125 183.37304688 C-178.22282153 172.26391741 -175.16048322 163.53232853 -167.859375 155.11328125 C-156.69920621 144.09040803 -141.4377689 138.14868899 -125.859375 137.73828125 C-109.06656061 138.1636499 -97.63167233 144.54784537 -85.859375 156.11328125 C-85.15554687 156.86480469 -84.45171875 157.61632812 -83.7265625 158.390625 C-81.90446474 160.38739403 -81.90446474 160.38739403 -78.859375 160.61328125 C-75.80462706 160.32066883 -75.80462706 160.32066883 -73.484375 158.48828125 C-71.37358096 155.40327457 -71.47706687 153.80437526 -71.859375 150.11328125 C-73.34767735 147.43675202 -73.34767735 147.43675202 -75.484375 145.05078125 C-76.21398437 144.18453125 -76.94359375 143.31828125 -77.6953125 142.42578125 C-79.43928034 140.56219106 -81.0700766 139.05672469 -83.109375 137.55078125 C-88.03130478 133.18816168 -89.58474387 128.83156894 -90.2421875 122.32421875 C-90.55561113 115.07489433 -89.95736016 108.87618721 -86.828125 102.2265625 C-85.43041793 99.17753216 -84.92618558 96.4538104 -84.859375 93.11328125 C-85.60474251 90.53610765 -85.60474251 90.53610765 -87.859375 89.11328125 C-90.60165347 88.61157542 -93.13343801 88.50324293 -95.859375 89.11328125 C-98.99969713 91.40277719 -100.06202111 94.52107482 -101.484375 98.05078125 C-101.90976563 99.09105469 -102.33515625 100.13132812 -102.7734375 101.203125 C-104.65963987 106.25787597 -105.13251745 110.99356401 -105.421875 116.36328125 C-105.46505859 117.10835937 -105.50824219 117.8534375 -105.55273438 118.62109375 C-105.65834225 120.45163025 -105.75931701 122.28243301 -105.859375 124.11328125 C-110.0257766 124.0742571 -114.18417087 123.97039993 -118.34716797 123.80810547 C-119.76076637 123.76192211 -121.17504428 123.73299429 -122.58935547 123.72216797 C-134.25474151 123.61529692 -134.25474151 123.61529692 -138.08886719 120.02636719 C-139.70313868 117.43666357 -140.83540834 114.98394858 -141.859375 112.11328125 C-142.30539063 110.9428125 -142.75140625 109.77234375 -143.2109375 108.56640625 C-146.12465403 93.04998808 -143.57952535 79.69377777 -134.75390625 66.61328125 C-127.2013056 56.64696287 -114.65763978 50.16732082 -102.5234375 47.55078125 C-90.28726312 46.0897455 -75.90637465 44.8285924 -64.859375 51.11328125 C-64.06789063 51.54898438 -63.27640625 51.9846875 -62.4609375 52.43359375 C-54.37273718 57.35100458 -49.35937554 63.9466136 -44.859375 72.11328125 C-41.80953504 73.63820123 -39.2170381 73.34890673 -35.859375 73.11328125 C-33.75695056 72.26108202 -33.75695056 72.26108202 -32.859375 70.11328125 C-31.86617652 64.4520499 -32.78227445 61.70381538 -36.046875 56.98828125 C-37.30175869 55.350933 -38.57134145 53.72468187 -39.859375 52.11328125 C-41.0040625 50.53546875 -41.0040625 50.53546875 -42.171875 48.92578125 C-53.00995173 37.58360792 -66.88166243 33.63002803 -81.859375 31.11328125 C-82.19477708 20.66421637 -78.21676025 12.24949692 -71.859375 4.11328125 C-71.38113281 3.49710938 -70.90289062 2.8809375 -70.41015625 2.24609375 C-52.8137174 -17.69949185 -19.44724598 -15.87738439 0 0 Z " fill="#4C72AE" transform="translate(235.859375,52.88671875)"/>
<path d="M0 0 C1.33988996 1.00619113 2.6546216 2.04706275 3.9375 3.125 C4.55882812 3.63675781 5.18015625 4.14851563 5.8203125 4.67578125 C13.61607616 11.74596517 18.60841275 21.88579691 19.31640625 32.38671875 C19.38576708 33.86161792 19.44688454 35.33692647 19.5 36.8125 C19.74208765 43.03293035 19.74208765 43.03293035 20.9375 49.125 C22.04544922 49.30675781 22.04544922 49.30675781 23.17578125 49.4921875 C25.3133292 49.84527674 27.44999259 50.20374582 29.5859375 50.56640625 C31.62953465 50.90700578 33.67600297 51.23153474 35.7265625 51.52734375 C50.3015925 53.78453866 63.8148892 59.84051157 72.875 71.875 C80.99092865 84.88435622 83.56300717 98.66824145 80.12109375 113.6875 C77.61124531 120.40374948 73.58076213 125.32611885 68.6328125 130.45703125 C66.61355949 133.10973895 66.61355949 133.10973895 66.9296875 136.76171875 C67.66070798 140.10129 67.66070798 140.10129 69.6640625 141.984375 C72.22782044 143.27065905 74.49574416 143.83480025 77.3125 144.375 C90.68946694 147.48973495 102.53543711 154.35710913 109.9375 166.125 C116.84297513 177.3078823 116.57791348 191.28143013 114.23828125 203.89453125 C110.70759736 215.49960615 104.26691173 222.93676473 93.875 228.875 C90.9375 230.125 90.9375 230.125 87.1875 231.125 C83.67751239 231.83017745 83.67751239 231.83017745 81.9375 235.125 C81.50148231 239.65958398 82.30195004 242.58065673 84.3125 246.625 C87.40998894 253.10872684 89.40217555 258.91679406 89.9375 266.125 C90.00324219 266.98480469 90.06898438 267.84460938 90.13671875 268.73046875 C90.48098082 277.14708273 88.40088114 283.35747591 83.8125 290.375 C76.62727436 297.24782452 68.3498609 300.25303366 59.00708008 303.12109375 C54.57227418 304.40603405 54.57227418 304.40603405 50.9375 307.125 C50.72538912 309.55152608 50.72538912 309.55152608 50.8828125 312.3671875 C50.91044678 313.4281665 50.93808105 314.48914551 50.96655273 315.58227539 C50.99821533 316.71012451 51.02987793 317.83797363 51.0625 319 C51.21315502 331.04474127 50.92269072 341.31904009 42.046875 350.44140625 C35.30116862 355.82547931 27.29765984 357.81668078 18.9375 359.125 C17.10199226 359.42446399 15.26852562 359.73675082 13.4375 360.0625 C12.6228125 360.19527344 11.808125 360.32804687 10.96875 360.46484375 C8.56345749 361.01455086 8.56345749 361.01455086 6.9375 364.125 C7.14380286 366.15364482 7.36135753 368.18164575 7.62890625 370.203125 C8.83073131 381.58243067 9.20226247 392.31536514 1.9140625 401.7421875 C-0.32115216 404.3130658 -2.6375598 406.73322137 -5.0625 409.125 C-5.93068359 410.00865234 -5.93068359 410.00865234 -6.81640625 410.91015625 C-16.1476134 419.70172733 -28.82073514 422.63399234 -41.2734375 422.4375 C-50.88859319 421.64449747 -60.1770702 417.27768526 -66.84765625 410.2421875 C-72.84888366 402.72222194 -75.19080025 394.41740151 -75.18275452 384.86711121 C-75.18412918 383.60652893 -75.18550385 382.34594666 -75.18692017 381.04716492 C-75.18338149 379.65798926 -75.17974669 378.26881385 -75.17602539 376.87963867 C-75.1757432 375.41093955 -75.17590188 373.9422403 -75.1764679 372.47354126 C-75.17675461 368.49254696 -75.1708782 364.51158283 -75.16389394 360.53059554 C-75.15763947 356.36791751 -75.15705494 352.20523877 -75.15586853 348.04255676 C-75.15276139 340.16266389 -75.14455632 332.2827849 -75.13451904 324.40289813 C-75.12333874 315.43076616 -75.11784262 306.45863353 -75.11282361 297.48649633 C-75.1023732 279.03265475 -75.08403538 260.5788322 -75.0625 242.125 C-65.4925 242.125 -55.9225 242.125 -46.0625 242.125 C-46.0625 263.245 -46.0625 284.365 -46.0625 306.125 C-49.3625 307.775 -52.6625 309.425 -56.0625 311.125 C-63.02443263 317.97642577 -66.16175355 323.16006367 -66.5 332.9375 C-66.33037646 340.89284422 -64.77145999 347.44875611 -59.0625 353.125 C-59.0625 353.785 -59.0625 354.445 -59.0625 355.125 C-58.48628906 355.41246094 -57.91007812 355.69992187 -57.31640625 355.99609375 C-55.88460175 356.71323673 -54.45467964 357.43416007 -53.02734375 358.16015625 C-52.35832031 358.49917969 -51.68929688 358.83820313 -51 359.1875 C-50.32839844 359.52910156 -49.65679687 359.87070312 -48.96484375 360.22265625 C-42.83979378 363.12796743 -35.7649145 363.07513148 -29.26171875 361.40625 C-20.56055295 358.13175968 -15.44072011 353.61877921 -11.203125 345.35546875 C-8.23187818 336.94032794 -8.92064728 327.31737881 -12.7421875 319.2734375 C-17.34292759 311.78702611 -21.75231141 309.81841715 -30.0625 306.125 C-30.0625 295.565 -30.0625 285.005 -30.0625 274.125 C-23.75909344 273.89494867 -17.47028236 273.69617799 -11.16601562 273.57568359 C-9.02391184 273.52546791 -6.88214961 273.45727653 -4.74121094 273.37060547 C13.13516334 272.66517751 13.13516334 272.66517751 17.56982422 276.25708008 C19.08502845 278.84957786 19.95526546 281.30026439 20.9375 284.125 C26.17062288 290.09155801 31.86889348 293.56338155 39.7578125 294.4375 C48.24614015 294.78484845 55.52278957 292.99505131 62.3125 287.75 C68.26669518 281.79580482 71.13215355 275.77149454 71.31738281 267.3137207 C71.31496582 266.29217896 71.31496582 266.29217896 71.3125 265.25 C71.31008301 264.18881958 71.31008301 264.18881958 71.30761719 263.10620117 C71.17633137 257.5233361 70.23688846 253.59624023 66.9375 249.125 C66.31875 248.2175 65.7 247.31 65.0625 246.375 C59.06402205 240.02367041 51.78367258 237.04505277 43.1875 236.5625 C35.27486499 236.79257662 28.66059186 239.85739279 22.734375 245.05859375 C18.79251928 249.30685422 17.3426949 252.51287856 14.9375 258.125 C0.0875 258.125 -14.7625 258.125 -30.0625 258.125 C-30.25 244.875 -30.25 244.875 -30.27026367 240.71386719 C-30.29838135 239.62750977 -30.32649902 238.54115234 -30.35546875 237.421875 C-30.3711792 236.31166992 -30.38688965 235.20146484 -30.40307617 234.05761719 C-30.85261981 231.00803953 -30.85261981 231.00803953 -33.04296875 228.76953125 C-37.13775329 226.5393834 -40.48629835 226.52245044 -45.08203125 226.515625 C-45.94060226 226.49908875 -46.79917328 226.48255249 -47.6837616 226.46551514 C-50.41424763 226.41709967 -53.144177 226.39567894 -55.875 226.375 C-57.7311477 226.34683486 -59.58726954 226.31690666 -61.44335938 226.28515625 C-65.98332734 226.20803565 -70.52154736 226.16745865 -75.0625 226.125 C-75.0625 219.195 -75.0625 212.265 -75.0625 205.125 C-72.40513794 205.10312622 -72.40513794 205.10312622 -69.6940918 205.08081055 C-63.84256443 205.02917669 -57.99127505 204.96389547 -52.14000225 204.88928509 C-48.59213721 204.84454618 -45.04438792 204.80529829 -41.49633789 204.77856445 C-37.41783459 204.74759374 -33.33995455 204.69280395 -29.26171875 204.63671875 C-27.34911507 204.62713387 -27.34911507 204.62713387 -25.39787292 204.61735535 C-24.21687515 204.59756119 -23.03587738 204.57776703 -21.8190918 204.55737305 C-20.77762497 204.54626999 -19.73615814 204.53516693 -18.66313171 204.52372742 C-15.70152888 204.06965611 -14.83729864 203.48307446 -13.0625 201.125 C-11.74039941 198.48079883 -11.90127878 196.44300385 -11.85717773 193.48193359 C-11.83723251 192.30086029 -11.81728729 191.11978699 -11.79673767 189.90292358 C-11.78002518 188.62269318 -11.76331268 187.34246277 -11.74609375 186.0234375 C-11.72531265 184.71670074 -11.70453156 183.40996399 -11.68312073 182.06362915 C-11.62790706 178.588311 -11.57849475 175.11293347 -11.53027344 171.63751221 C-11.48005323 168.091621 -11.42436988 164.5458161 -11.36914062 161 C-11.26156772 154.0417415 -11.16012083 147.08340504 -11.0625 140.125 C-10.37978027 139.80176758 -9.69706055 139.47853516 -8.99365234 139.14550781 C-8.09598145 138.71077148 -7.19831055 138.27603516 -6.2734375 137.828125 C-5.38446777 137.40176758 -4.49549805 136.97541016 -3.57958984 136.53613281 C2.21450564 133.28784262 5.79831044 127.77905784 8.234375 121.69921875 C10.72128639 112.59435984 9.29002037 104.84484374 4.69921875 96.72265625 C0.05503346 89.87479989 -6.07626036 86.20025643 -14.0625 84.125 C-21.63376843 83.07847771 -27.48477784 84.32536883 -34.0625 88.125 C-35.0215625 88.66833984 -35.0215625 88.66833984 -36 89.22265625 C-41.62236511 92.79722028 -44.96990157 97.84720471 -47.0625 104.125 C-47.67321853 113.03548343 -48.1358518 121.38233564 -43.0625 129.125 C-42.68867188 129.69605469 -42.31484375 130.26710937 -41.9296875 130.85546875 C-38.07418302 136.02593005 -33.24485162 138.5794121 -27.0625 140.125 C-27.0625 156.295 -27.0625 172.465 -27.0625 189.125 C-42.9025 189.125 -58.7425 189.125 -75.0625 189.125 C-75.0625 144.245 -75.0625 99.365 -75.0625 53.125 C-69.4525 53.125 -63.8425 53.125 -58.0625 53.125 C-56.7940625 55.661875 -56.7940625 55.661875 -55.5 58.25 C-51.10527199 66.23017045 -46.17773984 70.33408877 -37.60546875 73.43359375 C-29.05651503 75.75796365 -21.46740339 73.54337833 -13.875 69.375 C-8.44812714 65.03350171 -2.86756036 59.32883703 -1.76147461 52.17919922 C-1.624117 50.02650452 -1.59519336 47.90680876 -1.625 45.75 C-1.63527222 44.61727661 -1.63527222 44.61727661 -1.64575195 43.46166992 C-1.80771765 37.85959804 -2.61964287 33.67002591 -6.0625 29.125 C-7.114375 27.5471875 -7.114375 27.5471875 -8.1875 25.9375 C-12.94336412 20.51492596 -20.68429705 17.57437567 -27.7265625 16.8515625 C-37.2489176 16.52493818 -43.92332338 18.94454669 -50.9375 25.4375 C-54.2288131 28.97002044 -56.1310059 32.72119346 -58.0625 37.125 C-63.6725 37.125 -69.2825 37.125 -75.0625 37.125 C-75.729913 25.61212578 -72.43580513 16.05144036 -65.0625 7.125 C-48.05698391 -10.60616891 -20.76631733 -13.11556884 0 0 Z " fill="#4C72AD" transform="translate(339.0625,48.875)"/>
<path d="M0 0 C0.6290625 0.350625 1.258125 0.70125 1.90625 1.0625 C7.74335672 4.74909372 11.82571924 10.47715772 14 17 C15.16679404 35.26702151 15.16679404 35.26702151 10 42 C9.5875 42.60972656 9.175 43.21945312 8.75 43.84765625 C4.2700411 49.8421467 -2.03004821 52.67668274 -9 55 C-19.27094642 55.94073233 -26.38121029 54.21249845 -34.3125 47.625 C-38.33787299 43.88829917 -41.24182362 40.27452915 -43 35 C-43.70084717 34.9906543 -44.40169434 34.98130859 -45.1237793 34.97167969 C-48.31239025 34.91785456 -51.49955333 34.83423064 -54.6875 34.75 C-55.79029297 34.73582031 -56.89308594 34.72164062 -58.02929688 34.70703125 C-66.19516145 34.46032839 -66.19516145 34.46032839 -70.203125 32.16796875 C-72.75361852 29.09074287 -73.06961319 26.96795181 -73 23 C-71.37597656 20.30786133 -71.37597656 20.30786133 -69 18 C-66.15917969 17.43237305 -66.15917969 17.43237305 -62.921875 17.51171875 C-61.18164062 17.53588867 -61.18164062 17.53588867 -59.40625 17.56054688 C-58.1996875 17.60244141 -56.993125 17.64433594 -55.75 17.6875 C-54.52796875 17.71005859 -53.3059375 17.73261719 -52.046875 17.75585938 C-49.03001498 17.81478242 -46.01562485 17.89700735 -43 18 C-42.74347656 16.94039062 -42.48695313 15.88078125 -42.22265625 14.7890625 C-39.64192664 6.79127424 -33.44383118 1.70168808 -26.17578125 -2.125 C-17.14819798 -5.75548232 -8.30437056 -4.70994151 0 0 Z " fill="#010203" transform="translate(409,214)"/>
<path d="M0 0 C2.67578125 1.70703125 2.67578125 1.70703125 5.3125 3.8125 C14.85097238 11.0539525 22.95198215 13.17877366 34.75 13.1875 C35.6059375 13.19974609 36.461875 13.21199219 37.34375 13.22460938 C42.46811633 13.23625566 47.05691747 12.73434491 52.01318359 11.41259766 C55.93481073 10.59820224 59.44951166 11.1497322 62.9375 13.0625 C64.63965434 16.1664285 64.70848006 19.55484204 64 23 C61.95474324 25.68877992 59.8650464 26.62618576 56.6875 27.625 C55.57955078 27.98464844 55.57955078 27.98464844 54.44921875 28.3515625 C37.5032886 32.8380448 18.41371624 31.51477004 3.15625 22.875 C-2.82526511 19.28685097 -7.88930482 15.73213606 -12 10 C-12.15032977 5.64043659 -11.69027928 3.78889061 -8.8125 0.5 C-5.23558179 -1.40768971 -3.87421741 -1.02129741 0 0 Z " fill="#010203" transform="translate(140,254)"/>
<path d="M0 0 C3.29110633 2.10070617 4.8333853 3.75007795 7 7 C7.72753399 11.91508428 7.50435931 15.93308607 5.375 20.4375 C1.75662327 24.34153805 -1.22870837 25.77858855 -6.5 26.4375 C-10.76506 25.9043675 -12.75593838 24.80168958 -16 22 C-19.05603331 17.51781782 -19.9409895 13.29703078 -19 8 C-17.20548969 4.34195976 -15.60877052 2.43888108 -12.3125 0.0625 C-7.92593723 -1.3445107 -4.43001743 -1.21784612 0 0 Z " fill="#79F7E6" transform="translate(307,370)"/>
<path d="M0 0 C3.00119501 1.80447633 5.4065269 3.81305379 7 7 C7.49893401 11.36210879 8.00145931 15.96102884 6.0234375 19.98828125 C3.79205828 22.74670403 1.41786722 25.02346651 -2 26 C-6.73679066 26.4583991 -9.02668629 26.47747465 -13.3125 24.375 C-16.7801788 21.31053967 -18.62299932 18.66518539 -19.28125 14.01171875 C-19.48661782 9.46795563 -18.96902714 6.44790249 -16 3 C-10.68299442 -1.04092424 -6.46621729 -2.0654342 0 0 Z " fill="#79F8E6" transform="translate(388,302)"/>
<path d="M0 0 C3.00119501 1.80447633 5.4065269 3.81305379 7 7 C7.5880376 12.14112877 8.17453731 17.31516132 4.8125 21.5625 C0.63188674 25.18569816 -2.01816415 26.22792839 -7.5 25.9375 C-12.05492659 25.30087133 -14.16350512 23.69603878 -17 20 C-19.61906447 16.38319669 -19.53273952 12.30487905 -19 8 C-17.41627673 3.90095154 -14.94517911 1.6972915 -11.02734375 -0.33203125 C-7.21744894 -1.58731451 -3.78207711 -1.20806819 0 0 Z " fill="#79F8E6" transform="translate(400,227)"/>
<path d="M0 0 C4.31465002 3.54760113 6.57755104 5.49164553 7.3125 11.1875 C7.04941352 15.82659164 5.5835952 18.59339855 2.8125 22.3125 C-1.50483382 25.2866633 -4.99826076 25.9611549 -10.1875 25.3125 C-14.10756695 23.20169472 -16.84633252 21.09335094 -19.1875 17.3125 C-19.97373141 12.97512337 -20.200656 8.35087339 -18.203125 4.33203125 C-13.28524697 -1.81531628 -7.19947086 -3.81148457 0 0 Z " fill="#79F8E7" transform="translate(326.1875,149.6875)"/>
<path d="M0 0 C3.3737101 2.05056357 6.22043124 4.44086248 8 8 C8.55258891 13.03671207 8.53929549 16.92140903 6.25 21.5 C3.57196373 24.47559586 1.6114168 25.71928418 -2.33203125 26.40625 C-7.19009264 26.58986177 -10.24081579 26.36960482 -14.0625 23.1875 C-17.32409083 20.0793958 -17.93958349 17.73708138 -18.3125 13.1875 C-18.24803379 8.80379803 -16.88627274 6.35431697 -14 3 C-9.87023695 -0.5397969 -5.22703485 -1.13282155 0 0 Z " fill="#7AFAE8" transform="translate(314,81)"/>
<path d="M0 0 C1.175625 -0.00257813 2.35125 -0.00515625 3.5625 -0.0078125 C13.34361931 0.10333658 13.34361931 0.10333658 18 3.5 C19.44430855 6.38861709 19.37688506 8.29647701 19 11.5 C17.34976773 14.11350738 16.64836501 15.07602982 14 16.5 C9.49209146 17.2572148 5.06086896 17.1970896 0.5 17.125 C-0.72332031 17.14433594 -1.94664062 17.16367188 -3.20703125 17.18359375 C-13.16381711 17.12918508 -13.16381711 17.12918508 -16.3046875 14.1484375 C-18.41311605 10.85462515 -18.79914534 9.33589763 -18 5.5 C-13.6087226 -1.25581139 -7.43858107 -0.17943946 0 0 Z " fill="#010102" transform="translate(379,134.5)"/>
</svg>
