<svg xmlns="http://www.w3.org/2000/svg" xmlns:xlink="http://www.w3.org/1999/xlink" version="1.1" x="0px" y="0px" viewBox="0 0 64 80" style="enable-background:new 0 0 64 64;" xml:space="preserve"><g><path d="M44,55h17v3c0,1.654-1.346,3-3,3H6c-1.654,0-3-1.346-3-3v-3h17v-2H1v5c0,2.757,2.243,5,5,5h52c2.757,0,5-2.243,5-5v-5H44   V55z"/><path d="M25,59h14c1.654,0,3-1.346,3-3v-3H22v3C22,57.654,23.346,59,25,59z M24,55h16v1c0,0.551-0.448,1-1,1H25   c-0.552,0-1-0.449-1-1V55z"/><path d="M5,20c0-1.654,1.346-3,3-3h23v-2H8c-2.757,0-5,2.243-5,5v31h2V20z"/><rect x="59" y="32" width="2" height="19"/><path d="M31,19H9c-1.103,0-2,0.897-2,2v30h2V21h22V19z"/><rect x="55" y="35" width="2" height="16"/><path d="M61.211,5c-4.52,0-8.896-1.325-12.656-3.832L48,0.798l-0.555,0.37C43.686,3.675,39.309,5,34.789,5H33v15   c0,8.271,6.729,15,15,15s15-6.729,15-15V5H61.211z M61,20c0,7.168-5.832,13-13,13s-13-5.832-13-13V6.999   c4.621-0.039,9.097-1.351,13-3.808c3.903,2.457,8.379,3.769,13,3.808V20z"/><path d="M47.524,5.784c-3.005,1.625-6.248,2.647-9.639,3.038L37,8.924V20c0,6.065,4.935,11,11,11s11-4.935,11-11V8.924   l-0.886-0.103c-3.391-0.391-6.634-1.413-9.639-3.038L48,5.527L47.524,5.784z M57,10.693V20c0,4.962-4.037,9-9,9s-9-4.038-9-9   v-9.307c3.148-0.461,6.169-1.434,9-2.897C50.831,9.259,53.852,10.231,57,10.693z"/><polygon points="43.6,19.2 42.4,20.8 47.227,24.42 54.819,13.573 53.181,12.427 46.773,21.58  "/><path d="M16,51h12c1.654,0,3-1.346,3-3V38c0-1.302-0.839-2.402-2-2.816V32c0-3.86-3.141-7-7-7s-7,3.14-7,7v3.184   c-1.161,0.414-2,1.514-2,2.816v10C13,49.654,14.346,51,16,51z M22,27c2.757,0,5,2.243,5,5v3H17v-3C17,29.243,19.243,27,22,27z    M15,38c0-0.551,0.448-1,1-1h12c0.552,0,1,0.449,1,1v10c0,0.551-0.448,1-1,1H16c-0.552,0-1-0.449-1-1V38z"/><path d="M21,44.816V47h2v-2.184c1.161-0.414,2-1.514,2-2.816c0-1.654-1.346-3-3-3s-3,1.346-3,3C19,43.302,19.839,44.402,21,44.816z    M22,41c0.552,0,1,0.449,1,1s-0.448,1-1,1s-1-0.449-1-1S21.448,41,22,41z"/><rect x="9" y="57" width="2" height="2"/><rect x="13" y="57" width="2" height="2"/><rect x="17" y="57" width="2" height="2"/></g><text x="0" y="79" fill="#000000" font-size="5px" font-weight="bold" font-family="'Helvetica Neue', Helvetica, Arial-Unicode, Arial, Sans-serif">Created by Eucalyp</text><text x="0" y="84" fill="#000000" font-size="5px" font-weight="bold" font-family="'Helvetica Neue', Helvetica, Arial-Unicode, Arial, Sans-serif">from the Noun Project</text></svg>